<?xml version="1.0" encoding="UTF-8" standalone="no"?>
<!-- Created with Inkscape (http://www.inkscape.org/) -->

<svg
   xmlns:dc="http://purl.org/dc/elements/1.1/"
   xmlns:cc="http://creativecommons.org/ns#"
   xmlns:rdf="http://www.w3.org/1999/02/22-rdf-syntax-ns#"
   xmlns:svg="http://www.w3.org/2000/svg"
   xmlns="http://www.w3.org/2000/svg"
   xmlns:sodipodi="http://sodipodi.sourceforge.net/DTD/sodipodi-0.dtd"
   xmlns:inkscape="http://www.inkscape.org/namespaces/inkscape"
   width="196mm"
   height="150mm"
   viewBox="0 0 694.48815 531.49568"
   id="svg2"
   version="1.1"
   inkscape:version="0.91 r13725"
   sodipodi:docname="lenzhound-bg.svg">
  <sodipodi:namedview
     id="base"
     pagecolor="#ffffff"
     bordercolor="#666666"
     borderopacity="1.0"
     inkscape:pageopacity="0.0"
     inkscape:pageshadow="2"
     inkscape:zoom="0.80436198"
     inkscape:cx="92.726598"
     inkscape:cy="83.690235"
     inkscape:document-units="px"
     inkscape:current-layer="layer1"
     showgrid="false"
     inkscape:window-width="1920"
     inkscape:window-height="1017"
     inkscape:window-x="1592"
     inkscape:window-y="-8"
     inkscape:window-maximized="1" />
  <defs
     id="defs4">
    <inkscape:path-effect
       effect="spiro"
       id="path-effect4493"
       is_visible="true" />
    <inkscape:path-effect
       effect="spiro"
       id="path-effect4489"
       is_visible="true" />
    <inkscape:path-effect
       effect="spiro"
       id="path-effect4483"
       is_visible="true" />
  </defs>
  <metadata
     id="metadata7">
    <rdf:RDF>
      <cc:Work
         rdf:about="">
        <dc:format>image/svg+xml</dc:format>
        <dc:type
           rdf:resource="http://purl.org/dc/dcmitype/StillImage" />
        <dc:title></dc:title>
      </cc:Work>
    </rdf:RDF>
  </metadata>
  <g
     inkscape:label="Layer 1"
     inkscape:groupmode="layer"
     id="layer1"
     transform="translate(0,-520.86649)">
    <g
       id="g4293"
       style="stroke:none"
       transform="matrix(1.3252099,0,0,1.3252099,-11.698935,-284.43801)">
      <path
         style="fill:#999999;fill-rule:evenodd;stroke:none;stroke-width:1px;stroke-linecap:butt;stroke-linejoin:miter;stroke-opacity:1"
         d="m 197.27796,644.90268 c 7.46953,-11.28531 23.161,-16.63387 32.85327,-13.68666 0,0 91.54724,27.83752 91.54724,27.83752 13.16974,4.00463 21.39261,16.88827 13.155,30.11608 0,0 -145.64959,233.88153 -145.64959,233.88153 -9.63646,15.47406 -21.85122,18.65717 -34.62656,11.58415 0,0 -92.219809,-51.05715 -92.219809,-51.05715 -12.68679,-7.02399 -9.81046,-19.15591 -1.03666,-32.41422 8.72155,-13.17936 135.977109,-206.26125 135.977109,-206.26125 0,0 0,0 0,0"
         id="path3371-2"
         inkscape:connector-curvature="0"
         sodipodi:nodetypes="csssssssc" />
      <path
         style="fill:#cccccc;fill-rule:evenodd;stroke:none;stroke-width:1px;stroke-linecap:butt;stroke-linejoin:miter;stroke-opacity:1"
         d="m 190.30727,635.0188 c 7.46953,-11.28531 23.161,-16.63387 32.85327,-13.68666 0,0 91.54724,27.83752 91.54724,27.83752 13.16974,4.00463 21.39261,16.88827 13.155,30.11608 0,0 -145.64959,233.88153 -145.64959,233.88153 -9.63646,15.47406 -21.85122,18.65717 -34.62656,11.58415 0,0 -92.219819,-51.05715 -92.219819,-51.05715 -12.686783,-7.02399 -9.810453,-19.15591 -1.036651,-32.41422 8.721549,-13.17936 135.97711,-206.26125 135.97711,-206.26125 0,0 0,0 0,0"
         id="path3371"
         inkscape:connector-curvature="0"
         sodipodi:nodetypes="csssssssc" />
      <path
         inkscape:connector-curvature="0"
         style="fill:none;stroke:none"
         d="m 209.52657,791.30558 c -12.30152,19.40761 -37.09468,28.42018 -54.83955,20.17736 -17.27853,-8.02619 -21.15739,-29.39417 -9.16254,-47.7745 5.72431,-8.77167 14.42922,-15.80926 24.26294,-19.60967 9.89203,-3.82294 20.20384,-4.09178 28.70379,-0.69657 8.60766,3.43822 14.6778,10.36029 16.80944,19.29245 2.15745,9.04033 0.0948,19.35184 -5.77408,28.61093 0,0 0,0 0,0"
         id="path4179" />
      <path
         inkscape:connector-curvature="0"
         style="fill:none;stroke:none"
         d="m 236.37513,803.72399 c -22.40489,35.7941 -67.94764,51.8793 -99.93189,36.11362 -30.4806,-15.0245 -36.568919,-53.36041 -15.16334,-85.81102 10.16677,-15.41269 25.48417,-27.82599 42.7787,-34.64962 17.47603,-6.89524 35.81526,-7.62915 51.10338,-1.8845 15.63571,5.87527 26.88579,18.07151 31.06602,34.06878 4.27247,16.35024 0.77799,35.17887 -9.85287,52.16274 0,0 0,0 0,0"
         id="path4181" />
      <path
         inkscape:connector-curvature="0"
         style="fill:none;stroke:none"
         d="m 226.5686,691.71583 c -4.09345,6.3501 -12.49812,9.66189 -18.71009,7.39868 -2.96318,-1.07959 -5.01417,-3.30953 -5.70959,-6.19379 -0.69261,-2.87262 0.0152,-6.16416 1.96331,-9.15628 1.94541,-2.98795 4.97504,-5.4427 8.43004,-6.82972 3.46209,-1.38987 7.07827,-1.59812 10.05751,-0.57328 6.2454,2.14839 8.05014,9.02309 3.96882,15.35439 0,0 0,0 0,0"
         id="path4183" />
      <path
         inkscape:connector-curvature="0"
         style="fill:none;stroke:none"
         d="m 192.9052,692.19594 c -4.07198,6.24129 -12.25007,9.4952 -18.2072,7.26935 -2.84194,-1.06187 -4.78157,-3.25465 -5.3997,-6.09063 -0.61567,-2.82474 0.12926,-6.06121 2.06693,-9.00302 1.935,-2.93776 4.90749,-5.35081 8.2709,-6.71362 3.37018,-1.36555 6.86692,-1.56895 9.72512,-0.55997 5.99098,2.1149 7.60408,8.87476 3.54395,15.09789 0,0 0,0 0,0"
         id="path4183-9" />
      <path
         inkscape:connector-curvature="0"
         style="fill:none;stroke:none"
         d="m 234.11366,694.65675 c -4.10511,6.39007 -2.27011,13.46956 4.16308,15.81464 6.49293,2.36686 15.16519,-0.99048 19.30386,-7.50088 1.983,-3.1194 2.62454,-6.54567 1.78846,-9.5189 -0.83261,-2.96088 -3.06139,-5.22553 -6.18794,-6.30164 -3.11278,-1.07137 -6.86469,-0.87808 -10.43519,0.53136 -3.56304,1.40649 -6.66528,3.91357 -8.63227,6.97542 0,0 0,0 0,0"
         id="path4183-5" />
      <path
         inkscape:connector-curvature="0"
         style="fill:none;stroke:none"
         d="m 255.8993,715.35579 c -4.16625,6.56867 -2.17891,13.91746 4.50715,16.417 6.7496,2.5233 15.68302,-0.85677 19.88324,-7.55252 2.01239,-3.20804 2.63209,-6.7484 1.72812,-9.83566 -0.90011,-3.07413 -3.23613,-5.4425 -6.48565,-6.59025 -3.23487,-1.14258 -7.11455,-0.98321 -10.79075,0.43663 -3.66834,1.41681 -6.84592,3.97753 -8.84211,7.1248 0,0 0,0 0,0"
         id="path4183-9-6" />
      <path
         inkscape:connector-curvature="0"
         style="fill:none;stroke:none"
         d="m 252.84701,665.49611 c -1.27744,1.98847 -3.95279,3.05763 -5.96925,2.38809 -2.0107,-0.66762 -2.60264,-2.81153 -1.32841,-4.78861 1.27304,-1.97524 3.93255,-3.04451 5.94645,-2.38825 2.01966,0.65814 2.62744,2.80215 1.35121,4.78877 0,0 0,0 0,0"
         id="path4218" />
      <path
         inkscape:connector-curvature="0"
         style="fill:none;stroke:none"
         d="m 243.39993,655.67588 c -1.27744,1.98847 -3.95279,3.05763 -5.96925,2.38809 -2.0107,-0.66762 -2.60264,-2.81153 -1.32841,-4.78861 1.27304,-1.97524 3.93255,-3.04451 5.94645,-2.38825 2.01966,0.65814 2.62744,2.80215 1.35121,4.78877 0,0 0,0 0,0"
         id="path4218-5" />
      <path
         style="fill:#f9f9f9;stroke:none;stroke-width:0.6216107"
         d="m 152.79203,844.16229 c -12.79785,-2.32148 -22.26898,-7.32633 -30.4579,-16.09495 -14.962,-16.02116 -17.06272,-41.11491 -5.40547,-64.56992 11.81843,-23.77931 34.20808,-41.24869 60.84848,-47.47663 7.44976,-1.74159 24.20075,-1.58168 31.08053,0.29671 20.43171,5.57848 34.42096,20.70308 37.63061,40.68466 1.12086,6.97782 0.44826,17.89519 -1.55873,25.30084 -5.36851,19.80935 -20.76286,39.40315 -39.845,50.71438 -16.57444,9.82475 -36.34333,14.03801 -52.29252,11.14491 z m 28.71477,-30.79397 c 14.12814,-4.4506 25.47484,-14.14079 31.3583,-26.78028 2.66402,-5.72312 3.7627,-10.62643 3.7627,-16.79247 0,-9.16238 -3.04164,-16.2254 -9.48033,-22.01433 -1.72295,-1.54908 -3.91563,-4.05117 -4.87263,-5.56019 -3.79189,-5.9792 -9.70558,-10.15849 -17.63669,-12.46413 -5.81011,-1.68904 -16.4597,-1.05903 -23.47623,1.38882 -30.17355,10.5266 -43.7479,45.80426 -24.6023,63.93758 2.14417,2.0308 4.91379,5.25034 6.15471,7.15453 3.74966,5.75381 10.25041,10.16071 17.8272,12.08516 5.0741,1.28878 15.32535,0.82198 20.96527,-0.95469 z"
         id="path4391"
         inkscape:connector-curvature="0" />
      <path
         style="fill:#333333;stroke:none;stroke-width:0.6216107"
         d="m 164.1017,813.3647 c -7.18295,-0.95475 -13.56239,-4.33884 -18.27774,-9.69576 -1.4087,-1.60037 -2.48534,-2.98571 -2.39252,-3.07852 0.0928,-0.0928 1.84448,0.41724 3.89259,1.13345 2.46162,0.86081 5.83085,1.39318 9.93995,1.57059 20.33554,0.87801 40.16015,-12.89843 47.37643,-32.92264 1.35602,-3.76276 1.64473,-5.6607 1.68374,-11.06842 0.0259,-3.5898 -0.16814,-7.49808 -0.43117,-8.68506 l -0.47826,-2.15815 2.53317,2.46896 c 5.5731,5.43181 8.42122,15.29762 6.92876,24.00098 -1.61952,9.44436 -6.32481,17.93317 -13.96066,25.18649 -2.50188,2.37654 -6.28108,5.37324 -8.39823,6.65934 -8.63118,5.24317 -19.52896,7.77 -28.41606,6.58874 z"
         id="path4393"
         inkscape:connector-curvature="0" />
      <path
         style="fill:#333333;stroke:none;stroke-width:0.6216107"
         d="m 151.60845,801.31262 c -2.08489,-0.47648 -5.19727,-1.5791 -6.91641,-2.45025 -2.99433,-1.51734 -3.1714,-1.75277 -4.2133,-5.60184 -2.17001,-8.01667 -0.40077,-18.69811 4.49198,-27.11941 2.89552,-4.98373 12.27831,-14.48601 17.097,-17.31473 7.63096,-4.47961 16.008,-6.90997 23.79036,-6.9021 5.24211,0.005 8.75874,0.75823 13.52844,2.8965 3.44512,1.54445 3.62242,1.73994 4.61812,5.09171 2.38884,8.04149 0.54247,19.24438 -4.61063,27.97511 -4.72667,8.00827 -14.1195,16.4373 -22.28528,19.9986 -8.45522,3.68753 -18.46986,5.03317 -25.50028,3.42641 z"
         id="path4395"
         inkscape:connector-curvature="0" />
      <path
         style="fill:#333333;stroke:none;stroke-width:0.6216107"
         d="m 136.16283,792.7447 c -5.06461,-5.90904 -7.69248,-14.88836 -6.60329,-22.56311 1.47176,-10.37042 4.96031,-17.08737 13.07593,-25.17672 7.99401,-7.96813 15.03408,-11.95145 24.76953,-14.01476 8.49648,-1.80073 18.21281,-0.38902 24.88547,3.61566 2.95697,1.77467 8.79707,7.49772 8.79707,8.62076 0,0.22944 -1.37943,-0.10698 -3.0654,-0.74759 -12.56118,-4.77288 -28.78478,-1.47286 -41.76505,8.49537 -12.75859,9.798 -20.22689,26.15203 -18.02668,39.47476 0.40454,2.44963 0.62004,4.56936 0.47887,4.71053 -0.14116,0.14116 -1.28707,-0.94554 -2.54645,-2.4149 z"
         id="path4397"
         inkscape:connector-curvature="0" />
      <path
         style="fill:#333333;stroke:none;stroke-width:0.6216107"
         d="m 261.18722,731.08749 c -7.59363,-2.82204 -8.88158,-10.57796 -2.88982,-17.4022 7.1764,-8.17348 20.57749,-7.43075 22.92044,1.27032 2.48673,9.23498 -10.48282,19.68015 -20.03062,16.13188 z"
         id="path4399"
         inkscape:connector-curvature="0" />
      <path
         style="fill:#333333;stroke:none;stroke-width:0.6216107"
         d=""
         id="path4401"
         inkscape:connector-curvature="0" />
      <path
         style="fill:#333333;stroke:none;stroke-width:0.6216107"
         d="m 237.45176,709.03961 c -2.88975,-1.78498 -4.11573,-3.4955 -4.48648,-6.25959 -0.98707,-7.35922 7.64888,-15.63141 16.25451,-15.56982 2.97283,0.0213 7.02157,2.16458 8.41915,4.45689 3.47112,5.6933 -1.36663,14.70409 -9.50538,17.70476 -3.15117,1.1618 -8.53412,0.99437 -10.6818,-0.33224 z"
         id="path4403"
         inkscape:connector-curvature="0" />
      <path
         style="fill:#333333;stroke:none;stroke-width:0.6216107"
         d="m 207.56173,698.12359 c -6.23215,-2.71348 -6.21944,-11.55273 0.0245,-17.03497 3.22996,-2.83595 5.68944,-3.9336 9.61061,-4.28916 4.40686,-0.3996 7.65253,0.87545 9.36081,3.67737 3.32777,5.4582 -0.0445,12.87007 -7.56553,16.6284 -4.20544,2.10148 -8.13805,2.45184 -11.43038,1.01836 z"
         id="path4405"
         inkscape:connector-curvature="0" />
      <path
         style="fill:#333333;stroke:none;stroke-width:0.62199998;stroke-miterlimit:4;stroke-dasharray:none"
         d="m 176.18681,699.05304 c -4.27982,-1.33555 -6.17981,-3.76432 -6.17981,-7.8997 0,-8.50995 11.67134,-16.3463 19.4453,-13.05594 6.30572,2.66893 6.33765,10.77511 0.0652,16.55684 -4.09702,3.7765 -9.55428,5.57726 -13.33071,4.3988 z"
         id="path4407"
         inkscape:connector-curvature="0" />
      <path
         style="fill:#808080;stroke:none;stroke-width:0.6216107"
         d=""
         id="path4409"
         inkscape:connector-curvature="0" />
      <path
         style="fill:#999999;stroke:none;stroke-width:0.6216107"
         d="m 236.93375,656.94483 c -0.81861,-0.81861 -0.39155,-3.14325 0.77067,-4.19505 1.70398,-1.54208 5.27822,-1.12032 5.53107,0.65266 0.32976,2.31217 -4.70294,5.14119 -6.30174,3.54239 z"
         id="path4411"
         inkscape:connector-curvature="0" />
      <path
         style="fill:#808080;stroke:none;stroke-width:0.6216107"
         d=""
         id="path4413"
         inkscape:connector-curvature="0" />
      <path
         style="fill:#999999;stroke:none;stroke-width:0.6216107"
         d="m 246.62052,666.89333 c -1.1398,-0.45992 -0.94691,-2.97939 0.3108,-4.05957 1.66266,-1.42797 3.23007,-1.80647 4.55171,-1.09915 3.32458,1.77927 -1.239,6.62084 -4.86251,5.15872 z"
         id="path4415"
         inkscape:connector-curvature="0" />
      <path
         style="fill:none;fill-rule:evenodd;stroke:none;stroke-width:1px;stroke-linecap:butt;stroke-linejoin:miter;stroke-opacity:1"
         d="m 345.30473,793.77215 c 0,0 12.43222,30.45892 48.48564,39.78308 36.05342,9.32416 44.75597,-15.54026 78.32294,-4.35127 33.56698,11.18899 31.74308,41.87935 17.4051,61.53946 -34.15961,46.83935 -64.0259,64.0259 -70.24201,101.32254 -5.92803,35.56814 16.78349,131.78144 16.78349,131.78144 l -0.62161,-0.6216 6.83772,-1.2432 c 0,0 -24.51806,-100.4856 -16.78349,-132.40309 7.06663,-29.16117 45.75775,-63.89106 70.86362,-99.4577 22.37799,-31.70215 0.66043,-65.81532 -28.59409,-68.99879 -42.0941,-4.58066 -34.40416,14.9575 -73.35006,7.45932 -31.04539,-5.9771 -44.13436,-37.91824 -44.13436,-37.91824 z"
         id="path4471"
         inkscape:connector-curvature="0"
         sodipodi:nodetypes="csssscccsssscc" />
      <path
         style="fill:none;fill-rule:evenodd;stroke:#808080;stroke-width:6.5999999;stroke-linecap:butt;stroke-linejoin:miter;stroke-miterlimit:4;stroke-dasharray:none;stroke-opacity:1"
         d="m 354.45008,803.45876 c 9.72946,27.66148 29.35967,51.72433 54.50359,66.81086 18.02312,10.814 38.40086,16.98145 57.40351,25.96336 9.50132,4.49095 18.71613,9.72559 26.82107,16.41543 8.10493,6.68984 15.09241,14.89552 19.50808,24.43207 5.49378,11.86495 6.80304,25.38449 5.26428,38.36875 -1.53876,12.98425 -5.81121,25.50837 -11.05943,37.48397 -10.49644,23.9511 -25.07265,46.3946 -31.12665,71.8344 -6.91509,29.0582 -1.7326,60.801 14.06545,86.1509"
         id="path4481"
         inkscape:path-effect="#path-effect4483"
         inkscape:original-d="m 354.45008,803.45876 c 4.39545,31.64725 21.97726,65.93177 54.50359,66.81086 32.52634,0.87909 98.45811,-5.27454 103.73266,66.81086 5.27454,72.08542 -35.16362,91.42542 -36.9218,147.68712 -1.75818,56.2618 14.06545,86.1509 14.06545,86.1509"
         inkscape:connector-curvature="0" />
      <path
         style="fill:#cccccc;fill-opacity:1;fill-rule:evenodd;stroke:none;stroke-width:1px;stroke-linecap:butt;stroke-linejoin:miter;stroke-opacity:1"
         d="m 345.4394,787.85491 1.97796,5.71408 6.15363,-1.97795 -1.97796,-5.71409 -6.15363,1.97796 z"
         id="path4491"
         inkscape:path-effect="#path-effect4493"
         inkscape:original-d="m 345.4394,787.85491 1.97796,5.71408 6.15363,-1.97795 -1.97796,-5.71409 z"
         inkscape:connector-curvature="0"
         sodipodi:nodetypes="ccccc" />
      <path
         style="fill:#808080;fill-opacity:1;fill-rule:evenodd;stroke:none;stroke-width:1px;stroke-linecap:butt;stroke-linejoin:miter;stroke-opacity:1"
         d="m 349.65601,805.89356 9.83265,-3.07035 -4.75311,-12.3945 -9.43082,3.03263 4.35128,12.43222 z"
         id="path4487"
         inkscape:path-effect="#path-effect4489"
         inkscape:original-d="m 349.65601,805.89356 9.83265,-3.07035 -4.75311,-12.3945 -9.43082,3.03263 z"
         inkscape:connector-curvature="0"
         sodipodi:nodetypes="ccccc" />
    </g>
    <path
       inkscape:connector-curvature="0"
       id="path4179-1"
       d="m 252.50731,748.71535 c -16.30209,25.71914 -49.15823,37.6627 -72.6739,26.73923 -22.89769,-10.63639 -28.03799,-38.95344 -12.14229,-63.31124 7.5859,-11.62431 19.12174,-20.95059 32.15348,-25.98693 13.10901,-5.0662 26.77433,-5.42247 38.03855,-0.9231 11.40696,4.55637 19.45116,13.72956 22.27604,25.56654 2.85907,11.98034 0.12563,25.64526 -7.65188,37.9155 0,0 0,0 0,0"
       style="fill:none;stroke:none" />
    <path
       style="fill:#333333;fill-opacity:1;fill-rule:evenodd;stroke:none;stroke-width:1px;stroke-linecap:butt;stroke-linejoin:miter;stroke-opacity:1"
       d="m 172.09226,769.39184 c 1.88796,1.35146 4.98049,3.30837 8.00922,4.87833 l 75.65084,-68.3697 1.7703,0.36192 c -0.68109,-2.16604 -2.23737,-5.49742 -3.24343,-6.67075 l -18.43686,-6.76859 -35.42187,7.82576 -20.80006,17.09312 -10.09111,21.62382 -1.85346,10.91489 z"
       id="path4465"
       inkscape:connector-curvature="0"
       sodipodi:nodetypes="ccccccccccc" />
    <path
       style="fill:#999999;fill-opacity:1;fill-rule:evenodd;stroke:none;stroke-width:1px;stroke-linecap:butt;stroke-linejoin:miter;stroke-opacity:1"
       d="m 303.80192,588.30641 c 0,0 3.92427,-0.82531 5.66503,-2.29827 1.74077,-1.47296 2.10129,-3.6308 2.10129,-3.6308 3.62221,3.61709 10.73899,10.26056 11.20129,11.23742 l -7.88172,5.54891 c -0.3619,0.0318 -7.39058,-7.23818 -11.08589,-10.85726 z"
       id="path4469"
       inkscape:connector-curvature="0"
       sodipodi:nodetypes="cscccc" />
    <text
       xml:space="preserve"
       style="font-style:normal;font-weight:normal;font-size:42.2999115px;line-height:125%;font-family:sans-serif;letter-spacing:0px;word-spacing:0px;fill:#000000;fill-opacity:1;stroke:none;stroke-width:1px;stroke-linecap:butt;stroke-linejoin:miter;stroke-opacity:1"
       x="241.60201"
       y="1013.1498"
       id="text4525"
       sodipodi:linespacing="125%"><tspan
         sodipodi:role="line"
         id="tspan4527"
         x="241.60201"
         y="1013.1498"
         style="font-size:23.79370117px;fill:#666666">nothing is plugged in.</tspan></text>
  </g>
</svg>
